Coordinates
version=1
nRows=24
nColumns=19
inDegrees=yes

Units are S.I. units (second, meters, Newtons, ...)
If the header above contains a line with 'inDegrees', this indicates whether rotational values are in degrees (yes) or radians (no).

endheader
time	pelvis_tilt	pelvis_list	pelvis_rotation	pelvis_tx	pelvis_ty	pelvis_tz	hip_flexion_r	hip_adduction_r	hip_rotation_r	knee_angle_r	knee_angle_r_beta	ankle_angle_r	hip_flexion_l	hip_adduction_l	hip_rotation_l	knee_angle_l	knee_angle_l_beta	ankle_angle_l
     15.30666667	     -7.26395664	     -6.76535959	     -1.38764406	      2.42287521	      0.98185667	      1.04023365	     33.98788468	      9.77925249	      1.06768392	      8.68190373	      0.15152781	      3.05719904	    -11.16402687	     -7.06112868	     -4.79165187	     69.46222561	      1.21234454	    -23.25135054
     15.31333333	     -7.05545147	     -6.87868132	     -1.96470578	      2.42273767	      0.97844028	      1.04142268	     33.90542571	     10.08981820	     -0.07106376	     11.04416505	      0.19275704	      2.62918599	     -9.85737763	     -7.44237811	     -5.49721557	     74.01988826	      1.29189076	    -22.83722724
     15.32000000	     -6.63326436	     -7.18395492	     -2.54402867	      2.42273302	      0.97493401	      1.04271129	     33.65984524	     10.51641328	     -1.48047907	     13.83913586	      0.24153849	      2.15500874	     -8.80631635	     -8.13421149	     -6.27811598	     78.38964078	      1.36815733	    -22.29925961
     15.32666667	     -5.85584961	     -7.72719098	     -3.13931174	      2.42286589	      0.97153405	      1.04406619	     33.02605849	     11.11271131	     -2.96385334	     16.88874446	      0.29476420	      1.69877665	     -8.21920503	     -9.14947776	     -7.13293035	     82.50257979	      1.43994166	    -21.52117766
     15.33333333	     -6.13263595	     -7.87031445	     -3.63160109	      2.42261914	      0.96664196	      1.04526787	     33.78388829	     11.15339904	     -4.49888626	     20.61501179	      0.35979983	      1.54910374	     -6.17403926	     -9.76939936	     -7.44715964	     86.72765514	      1.51368313	    -20.57136748
     15.34000000	     -6.03321693	     -8.19991097	     -4.14311241	      2.42242258	      0.96208372	      1.04639599	     34.02449191	     11.35822578	     -5.79626949	     24.32151338	      0.42449049	      1.67578961	     -4.58024329	    -10.61266720	     -7.79982113	     90.65174010	      1.58217134	    -19.43026794
     15.34666667	     -5.30712653	     -8.82383531	     -4.69161407	      2.42224628	      0.95831530	      1.04746978	     33.38386613	     11.89201004	     -6.72698800	     27.81273289	      0.48542376	      2.14963445	     -3.75521941	    -11.81058368	     -8.28881328	     94.21969176	      1.64444384	    -18.14501975
     15.35333333	     -6.03179348	     -8.74394452	     -5.00910111	      2.42141158	      0.95288658	      1.04814019	     34.50579436	     11.60494101	     -7.51744612	     31.72829223	      0.55376317	      3.21610244	     -0.77694711	    -12.16597458	     -7.89614366	     97.92071688	      1.70903892	    -16.79606915
     15.36000000	     -6.08327558	     -8.91153771	     -5.34909198	      2.42047400	      0.94857437	      1.04872574	     34.60616091	     11.67585519	     -7.85729820	     35.19931080	      0.61434387	      4.67611297	      1.44391352	    -12.78728429	     -7.63239405	    101.21613752	      1.76655486	    -15.37154237
     15.36666667	     -6.17024933	     -9.03558763	     -5.60978780	      2.41921674	      0.94458939	      1.04915926	     34.55153354	     11.76658534	     -7.89068345	     38.37331933	      0.66974077	      6.56685873	      3.91214227	    -13.34356293	     -7.16843441	    104.26285900	      1.81973018	    -14.01413534
     15.37333333	     -5.64701952	     -9.32722453	     -5.82796546	      2.41785181	      0.94180876	      1.04943889	     33.51129595	     12.10259358	     -7.62444293	     41.03950754	      0.71627453	      8.87004172	      5.76145511	    -14.02568930	     -6.70143391	    106.88810172	      1.86554931	    -12.65191219
     15.38000000	     -6.26469302	     -9.03914191	     -5.78924122	      2.41580880	      0.93823941	      1.04943175	     33.62566152	     11.83738309	     -7.26953715	     43.51325372	      0.75944955	     11.27849376	      9.45959342	    -13.99228042	     -5.62467285	    109.44844756	      1.91023577	    -11.60373857
     15.38666667	     -5.66690182	     -9.15133310	     -5.82858712	      2.41398816	      0.93673233	      1.04949609	     31.94138193	     12.09633854	     -6.59309667	     45.22978095	      0.78940860	     13.89426203	     11.63096675	    -14.38571213	     -4.89831504	    111.37766971	      1.94390705	    -10.58788767
     15.39333333	     -6.05530192	     -8.80637905	     -5.39446569	      2.41162683	      0.93458686	      1.04893076	     31.21289102	     11.66853547	     -6.29175047	     46.66978069	      0.81454133	     16.41224201	     15.48811634	    -13.99006919	     -3.42188549	    113.18507586	      1.97545224	     -9.74178063
     15.40000000	     -5.97505910	     -8.59296021	     -5.07224349	      2.40953217	      0.93364795	      1.04858740	     29.57181041	     11.50025727	     -5.73554789	     47.46180287	      0.82836473	     18.84751939	     18.70579688	    -13.74859230	     -2.26044130	    114.43810678	      1.99732175	     -9.01987099
     15.40666667	     -5.58765450	     -8.32751376	     -4.56440621	      2.40762284	      0.93374946	      1.04805630	     27.28384261	     11.19668069	     -5.28249468	     47.70494687	      0.83260839	     21.04412503	     21.60808347	    -13.29016488	     -1.08848607	    115.18899457	      2.01042722	     -8.40365926
     15.41333333	     -5.29227062	     -7.96572489	     -4.30725606	      2.40607241	      0.93440494	      1.04800617	     24.80027351	     10.99703624	     -4.43083012	     47.46381530	      0.82839985	     22.86667737	     24.41166075	    -12.82160376	     -0.33260767	    115.42640321	      2.01457078	     -7.85000365
     15.42000000	     -4.90877796	     -7.58037145	     -3.32643232	      2.40477764	      0.93554305	      1.04709542	     22.03391753	     10.33130168	     -4.62952244	     46.82153247	      0.81718990	     24.40748652	     27.30727785	    -11.89345306	      0.98301562	    115.30944138	      2.01252941	     -7.41355602
     15.42666667	     -4.48756066	     -7.15857731	     -2.47329720	      2.40398767	      0.93750600	      1.04649708	     18.95437464	      9.79722492	     -4.58339410	     45.67522583	      0.79718308	     25.22076601	     29.86898498	    -10.92709011	      1.97155463	    114.65898714	      2.00117684	     -6.96798507
     15.43333333	     -4.05082558	     -6.59228710	     -1.67280059	      2.40392682	      0.94005602	      1.04616036	     15.64660421	      9.13486486	     -4.64448932	     44.17022670	      0.77091589	     25.65415661	     32.08739840	     -9.87501525	      2.59276116	    113.49445747	      1.98085197	     -6.51542999
     15.44000000	     -3.15747224	     -5.93282240	     -1.00519026	      2.40451054	      0.94380471	      1.04612702	     11.62439278	      8.50382243	     -4.46351528	     42.24129842	      0.73724974	     25.44246720	     33.37269622	     -8.83940328	      2.79686657	    111.78261847	      1.95097474	     -5.89710557
     15.44666667	     -3.02013439	     -5.13665762	     -0.20123551	      2.40540237	      0.94698040	      1.04595315	      8.41983444	      7.68205327	     -4.70437759	     40.25399034	      0.70256467	     24.69201080	     35.36840575	     -7.49953953	      3.02932845	    109.77780216	      1.91598409	     -5.46703426
     15.45333333	     -2.39681047	     -4.25628254	      0.46375587	      2.40693648	      0.95126159	      1.04604156	      4.51707963	      6.87853182	     -4.77467478	     37.89093895	      0.66132164	     23.35987029	     36.37515088	     -6.25083912	      2.87135804	    107.27292340	      1.87226571	     -4.82917867
     15.46000000	     -1.99550797	     -3.27913032	      0.90357281	      2.40884021	      0.95568716	      1.04636058	      0.84047734	      6.01872685	     -4.71621420	     35.40616919	      0.61795423	     21.42224191	     37.29573313	     -5.03493953	      2.39699550	    104.38953347	      1.82194106	     -4.18083766
